<mxfile host="app.diagrams.net" agent="Mozilla/5.0 (Windows NT 10.0; Win64; x64) AppleWebKit/537.36 (KHTML, like Gecko) Chrome/134.0.0.0 Safari/537.36" version="26.1.1">
  <diagram name="PÃ¡gina-1" id="Ssn3V43tlCuAPmQUEV2E">
    <mxGraphModel dx="2876" dy="2272" grid="1" gridSize="10" guides="1" tooltips="1" connect="1" arrows="1" fold="1" page="1" pageScale="1" pageWidth="827" pageHeight="1169" math="0" shadow="0">
      <root>
        <mxCell id="0" />
        <mxCell id="1" parent="0" />
        <mxCell id="YeAHKv5niiGHeIey5y5v-66" value="" style="rounded=0;whiteSpace=wrap;html=1;fillColor=none;" vertex="1" parent="1">
          <mxGeometry x="-170" y="-200" width="1170" height="1450" as="geometry" />
        </mxCell>
        <mxCell id="YeAHKv5niiGHeIey5y5v-5" value="" style="rounded=0;whiteSpace=wrap;html=1;fillColor=none;strokeColor=default;glass=1;" vertex="1" parent="1">
          <mxGeometry x="-90" y="220" width="1010" height="970" as="geometry" />
        </mxCell>
        <mxCell id="YeAHKv5niiGHeIey5y5v-22" value="" style="rounded=0;whiteSpace=wrap;html=1;fillColor=none;strokeColor=#9673A6;strokeWidth=3;" vertex="1" parent="1">
          <mxGeometry y="360" width="830" height="810" as="geometry" />
        </mxCell>
        <mxCell id="YeAHKv5niiGHeIey5y5v-31" value="" style="rounded=0;whiteSpace=wrap;html=1;fillColor=#d5e8d4;strokeColor=#82b366;" vertex="1" parent="1">
          <mxGeometry x="80" y="640" width="680" height="200" as="geometry" />
        </mxCell>
        <mxCell id="YeAHKv5niiGHeIey5y5v-14" value="" style="rounded=0;whiteSpace=wrap;html=1;fillColor=none;" vertex="1" parent="1">
          <mxGeometry x="10" y="-130" width="185" height="180" as="geometry" />
        </mxCell>
        <mxCell id="YeAHKv5niiGHeIey5y5v-7" style="edgeStyle=orthogonalEdgeStyle;rounded=0;orthogonalLoop=1;jettySize=auto;html=1;" edge="1" parent="1" source="YeAHKv5niiGHeIey5y5v-1" target="YeAHKv5niiGHeIey5y5v-3">
          <mxGeometry relative="1" as="geometry" />
        </mxCell>
        <mxCell id="YeAHKv5niiGHeIey5y5v-10" style="edgeStyle=orthogonalEdgeStyle;rounded=0;orthogonalLoop=1;jettySize=auto;html=1;" edge="1" parent="1" source="YeAHKv5niiGHeIey5y5v-1" target="YeAHKv5niiGHeIey5y5v-8">
          <mxGeometry relative="1" as="geometry" />
        </mxCell>
        <mxCell id="YeAHKv5niiGHeIey5y5v-1" value="" style="image;aspect=fixed;perimeter=ellipsePerimeter;html=1;align=center;shadow=0;dashed=0;spacingTop=3;image=img/lib/active_directory/laptop_client.svg;" vertex="1" parent="1">
          <mxGeometry x="400" y="-105" width="99" height="110" as="geometry" />
        </mxCell>
        <mxCell id="YeAHKv5niiGHeIey5y5v-2" value="&lt;font&gt;&lt;span&gt;Client&lt;/span&gt;&lt;/font&gt;" style="text;html=1;align=center;verticalAlign=middle;whiteSpace=wrap;rounded=0;fontStyle=1;fontSize=16;" vertex="1" parent="1">
          <mxGeometry x="396.65" y="-145" width="124.25" height="30" as="geometry" />
        </mxCell>
        <mxCell id="YeAHKv5niiGHeIey5y5v-25" style="edgeStyle=orthogonalEdgeStyle;rounded=0;orthogonalLoop=1;jettySize=auto;html=1;" edge="1" parent="1" source="YeAHKv5niiGHeIey5y5v-3" target="YeAHKv5niiGHeIey5y5v-19">
          <mxGeometry relative="1" as="geometry" />
        </mxCell>
        <mxCell id="YeAHKv5niiGHeIey5y5v-3" value="" style="shape=image;html=1;verticalAlign=top;verticalLabelPosition=bottom;labelBackgroundColor=#ffffff;imageAspect=0;aspect=fixed;image=https://cdn1.iconfinder.com/data/icons/ionicons-fill-vol-2/512/logo-vercel-128.png" vertex="1" parent="1">
          <mxGeometry x="71" y="-80" width="60" height="60" as="geometry" />
        </mxCell>
        <mxCell id="YeAHKv5niiGHeIey5y5v-4" value="Vercel&lt;br&gt;NextJs&lt;div&gt;&lt;br&gt;&lt;/div&gt;" style="text;html=1;align=center;verticalAlign=middle;whiteSpace=wrap;rounded=0;fontSize=18;fontStyle=0" vertex="1" parent="1">
          <mxGeometry x="10" y="-107" width="180" height="30" as="geometry" />
        </mxCell>
        <mxCell id="YeAHKv5niiGHeIey5y5v-8" value="Amazon S3" style="sketch=0;outlineConnect=0;fontColor=#232F3E;gradientColor=none;strokeColor=#ffffff;fillColor=#232F3E;dashed=0;verticalLabelPosition=middle;verticalAlign=bottom;align=center;html=1;whiteSpace=wrap;fontSize=10;fontStyle=1;spacing=3;shape=mxgraph.aws4.productIcon;prIcon=mxgraph.aws4.s3;" vertex="1" parent="1">
          <mxGeometry x="250" y="250" width="80" height="100" as="geometry" />
        </mxCell>
        <mxCell id="YeAHKv5niiGHeIey5y5v-15" value="&lt;font style=&quot;font-size: 16px;&quot;&gt;&lt;b&gt;FRONT END SERVICE&lt;/b&gt;&lt;/font&gt;" style="text;html=1;align=center;verticalAlign=middle;whiteSpace=wrap;rounded=0;" vertex="1" parent="1">
          <mxGeometry x="10" y="-185" width="180" height="55" as="geometry" />
        </mxCell>
        <mxCell id="YeAHKv5niiGHeIey5y5v-16" value="" style="shape=image;verticalLabelPosition=bottom;labelBackgroundColor=default;verticalAlign=top;aspect=fixed;imageAspect=0;image=https://logos-world.net/wp-content/uploads/2021/08/Amazon-Web-Services-AWS-Emblem.png;" vertex="1" parent="1">
          <mxGeometry x="813.35" y="220" width="106.65" height="60" as="geometry" />
        </mxCell>
        <mxCell id="YeAHKv5niiGHeIey5y5v-17" value="&lt;font&gt;AWS Cloud Service&lt;/font&gt;" style="text;html=1;align=center;verticalAlign=middle;whiteSpace=wrap;rounded=0;fontStyle=1;fontSize=16;" vertex="1" parent="1">
          <mxGeometry x="814" y="281" width="106" height="40" as="geometry" />
        </mxCell>
        <mxCell id="YeAHKv5niiGHeIey5y5v-49" style="edgeStyle=orthogonalEdgeStyle;rounded=0;orthogonalLoop=1;jettySize=auto;html=1;" edge="1" parent="1" source="YeAHKv5niiGHeIey5y5v-19" target="YeAHKv5niiGHeIey5y5v-46">
          <mxGeometry relative="1" as="geometry" />
        </mxCell>
        <mxCell id="YeAHKv5niiGHeIey5y5v-19" value="" style="sketch=0;points=[[0,0,0],[0.25,0,0],[0.5,0,0],[0.75,0,0],[1,0,0],[0,1,0],[0.25,1,0],[0.5,1,0],[0.75,1,0],[1,1,0],[0,0.25,0],[0,0.5,0],[0,0.75,0],[1,0.25,0],[1,0.5,0],[1,0.75,0]];outlineConnect=0;fontColor=#232F3E;fillColor=#E7157B;strokeColor=#ffffff;dashed=0;verticalLabelPosition=bottom;verticalAlign=top;align=center;html=1;fontSize=12;fontStyle=0;aspect=fixed;shape=mxgraph.aws4.resourceIcon;resIcon=mxgraph.aws4.api_gateway;" vertex="1" parent="1">
          <mxGeometry x="67" y="389.11" width="70" height="70" as="geometry" />
        </mxCell>
        <mxCell id="YeAHKv5niiGHeIey5y5v-24" value="&lt;font style=&quot;font-size: 16px;&quot;&gt;API GATEWAY&lt;/font&gt;" style="text;html=1;align=center;verticalAlign=middle;whiteSpace=wrap;rounded=0;" vertex="1" parent="1">
          <mxGeometry x="52.5" y="450.9" width="102.5" height="70" as="geometry" />
        </mxCell>
        <mxCell id="YeAHKv5niiGHeIey5y5v-26" value="" style="shape=image;verticalLabelPosition=bottom;labelBackgroundColor=default;verticalAlign=top;aspect=fixed;imageAspect=0;image=https://cdn.prod.website-files.com/65a790f0493b6806e60d6e21/668f5f3f34ff5107e79e7f82_aws-vpc.png;" vertex="1" parent="1">
          <mxGeometry x="747" y="360" width="80" height="80" as="geometry" />
        </mxCell>
        <mxCell id="YeAHKv5niiGHeIey5y5v-27" value="&lt;font&gt;Virtual Private Cloud&lt;/font&gt;&lt;div&gt;&lt;font&gt;(VPC)&lt;/font&gt;&lt;/div&gt;" style="text;html=1;align=center;verticalAlign=middle;whiteSpace=wrap;rounded=0;fontSize=16;fontStyle=1" vertex="1" parent="1">
          <mxGeometry x="627" y="360" width="120" height="80" as="geometry" />
        </mxCell>
        <mxCell id="YeAHKv5niiGHeIey5y5v-29" value="" style="sketch=0;outlineConnect=0;fontColor=#232F3E;gradientColor=none;fillColor=#8C4FFF;strokeColor=none;dashed=0;verticalLabelPosition=bottom;verticalAlign=top;align=center;html=1;fontSize=12;fontStyle=0;aspect=fixed;pointerEvents=1;shape=mxgraph.aws4.route_table;" vertex="1" parent="1">
          <mxGeometry x="100" y="761.35" width="55" height="53.59" as="geometry" />
        </mxCell>
        <mxCell id="YeAHKv5niiGHeIey5y5v-30" value="&lt;font style=&quot;font-size: 17px;&quot;&gt;Public route table&lt;/font&gt;" style="text;html=1;align=center;verticalAlign=middle;whiteSpace=wrap;rounded=0;" vertex="1" parent="1">
          <mxGeometry x="158.29" y="761.35" width="155" height="52.69" as="geometry" />
        </mxCell>
        <mxCell id="YeAHKv5niiGHeIey5y5v-32" value="" style="rounded=0;whiteSpace=wrap;html=1;fillColor=#dae8fc;strokeColor=#6c8ebf;" vertex="1" parent="1">
          <mxGeometry x="73" y="920" width="680" height="200" as="geometry" />
        </mxCell>
        <mxCell id="YeAHKv5niiGHeIey5y5v-34" value="" style="sketch=0;outlineConnect=0;fontColor=#232F3E;gradientColor=none;fillColor=#8C4FFF;strokeColor=none;dashed=0;verticalLabelPosition=bottom;verticalAlign=top;align=center;html=1;fontSize=12;fontStyle=0;aspect=fixed;pointerEvents=1;shape=mxgraph.aws4.route_table;" vertex="1" parent="1">
          <mxGeometry x="100" y="1040" width="58.29" height="56.8" as="geometry" />
        </mxCell>
        <mxCell id="YeAHKv5niiGHeIey5y5v-35" value="&lt;font style=&quot;font-size: 17px;&quot;&gt;Private route table&lt;/font&gt;" style="text;html=1;align=center;verticalAlign=middle;whiteSpace=wrap;rounded=0;" vertex="1" parent="1">
          <mxGeometry x="165" y="1044.11" width="143.36" height="52.69" as="geometry" />
        </mxCell>
        <mxCell id="YeAHKv5niiGHeIey5y5v-38" value="" style="sketch=0;outlineConnect=0;fontColor=#232F3E;gradientColor=none;fillColor=#8C4FFF;strokeColor=none;dashed=0;verticalLabelPosition=bottom;verticalAlign=top;align=center;html=1;fontSize=12;fontStyle=0;aspect=fixed;pointerEvents=1;shape=mxgraph.aws4.route_table;" vertex="1" parent="1">
          <mxGeometry x="101.64" y="558" width="55" height="53.59" as="geometry" />
        </mxCell>
        <mxCell id="YeAHKv5niiGHeIey5y5v-39" value="&lt;font style=&quot;font-size: 17px;&quot;&gt;Main route table&lt;/font&gt;" style="text;html=1;align=center;verticalAlign=middle;whiteSpace=wrap;rounded=0;labelBackgroundColor=default;" vertex="1" parent="1">
          <mxGeometry x="158.36" y="558.9" width="150" height="52.69" as="geometry" />
        </mxCell>
        <mxCell id="YeAHKv5niiGHeIey5y5v-40" value="" style="shape=image;verticalLabelPosition=bottom;labelBackgroundColor=default;verticalAlign=top;aspect=fixed;imageAspect=0;image=data:image/png,iVBORw0KGgoAAAANSUhEUgAAACgAAAAoCAIAAAADnC86AAAAAXNSR0IArs4c6QAAAERlWElmTU0AKgAAAAgAAYdpAAQAAAABAAAAGgAAAAAAA6ABAAMAAAABAAEAAKACAAQAAAABAAAAKKADAAQAAAABAAAAKAAAAAB65masAAACe0lEQVRYCWOsWijGMBCAaSAsBdk5ajHdQn7AgpqFVC+KC2jY6+QpSlhxc4h8+/nuwcsTh69Offr2IqnmkGAxIyOTnXaOlVbaoStTjt2Y9frjHWFeJXkxsxjHRWfvLNt3sfff/z/EW89IfD621c7WkvNcfjDl07cXyBZwcwiH28549PrsngsdyOL42cTGsSi/qo125oqDaWi2Ak3/+uPtikPpxiqR0sIG+C1DliXWYhvtrGPXZ3/89gxZM5wNjOyDlyfa6eTARQgyiLVYUczi4atTeIx7+OqkgrgFHgVoUsRazMMp+vL9dTTNyNyXH25ysQsxMjAiC+JhE2sxIyPz33+/8BgESdLAlI9HDbIUseqQ9VCFPfIsxleA1ITf5GQXIC9gv//60LpC4z/Df1za8RWZQFurF4nj0olfvDn2GTCh/f//F5eykRfH+IIaVygBy21PkwYpId1XH27tONv47N1lTJUESxKSg5qTTSDRddX1xzumbnE9e3d5vMtyPi4JTIsJipBssZqM86NXp0/fWvz5+8uL99ZefbhVW96XoDWYCki2mJWJ/fffH3CD/vz9ycLEBucSzyDZ4ptP92jIuKpLuwBzi6K4lYFSyLVH24i3D66S5MT1+furJfvj/cw7Y5wWvv10f/WRrLef78ONI55Bso+BRgMr5smbHRkYGCdtsr/97ADxliGrJMdiZP242HgKS4gWWlmMy0FwcfIt3n+x9///f3CD0BgECxCSExfcgn2XeuFsTMbgDWp8Pv7x6yOwdsP0DTEiv35/xRMRQBPwNQSA8UR84w3NNUBb8Yc2Ph8DdeKpydFsIpVLfqom1SY09aMWowUI7bgAIgfJCsZyc3UAAAAASUVORK5CYII=;" vertex="1" parent="1">
          <mxGeometry x="700" y="640" width="60" height="60" as="geometry" />
        </mxCell>
        <mxCell id="YeAHKv5niiGHeIey5y5v-41" value="" style="shape=image;verticalLabelPosition=bottom;labelBackgroundColor=default;verticalAlign=top;aspect=fixed;imageAspect=0;image=data:image/png,iVBORw0KGgoAAAANSUhEUgAAACgAAAAoCAIAAAADnC86AAAAAXNSR0IArs4c6QAAAERlWElmTU0AKgAAAAgAAYdpAAQAAAABAAAAGgAAAAAAA6ABAAMAAAABAAEAAKACAAQAAAABAAAAKKADAAQAAAABAAAAKAAAAAB65masAAACd0lEQVRYCWNkWLKMYSAA00BYCrJz1GK6hfyABTULqV7UEeCv0NZyEBMX5WB/+/Pn4Vevu65dP/vuHanmMDMEBROph4mRsVxba5qZ6ZpHj7uuXSs7f3Hn8+dAvVPNTARYWYEu+EekQWBljMTn41ItzQAZmdDDR559/45shSg7+zIbqxNv3tZevIQsjp9NbBxr8vMVa2qEHzmKZivQ9Nc/f0YeOZakrGQiLITfMmRZYi0G2jrxxs0n374ha4az3/z82XblarmWFlyEIINYi+3ExI6+foPHuCOvX9uKieJRgCZFrMXiHByXP3xA04zMvfrhowg7OyOyEF42sRYzMzL++ocv2f75/x9oETDl47UOIUmsxQgdVGKNPIvxFSBvQ4OF2NjIC9r3v34Jr14LinYcAF9ZDbSVcelyHBoJCP+JigAmtL/gFIdV6ciLY3xBjTWIgIIafHy9xoaGgoLXPn4qPXf+/Pv3mCoJZmeSg1qQjW23s+PGx0+Nt++cf/fedicHKU5OTIsJipBssZeUFLDQnnXnzvPv35c+eLDu8eMQOVmC1mAqINliDmbmH3//wg368fcfOzMznEs8g2SLtz576i0tBfQ3MLfYi4nFKCqsf/yEePvgKklOXC++/wg4eHiamclGB7s7nz/HHD0GJOHGEc8g2cdAo4++fq2/dTsw3eps2bbr+QviLUNWSY7FyPpxsfEUlhAttLIYl4Pg4uRb3HT5yj/cRTHBAoTkxAV3MtBiOBuTMXiDGp+PP/z6BazdMH1DjMiXP3/wRATQBHwNAWA8Ed94Q3MN0Fb8oY3Px0CdeGpyNJtI5ZKfqkm1CU39qMVoAUI7LgAoX8MiWl1UgAAAAABJRU5ErkJggg==;" vertex="1" parent="1">
          <mxGeometry x="693" y="920" width="60" height="60" as="geometry" />
        </mxCell>
        <mxCell id="YeAHKv5niiGHeIey5y5v-42" value="&lt;font style=&quot;font-size: 17px;&quot;&gt;Private Subnet&lt;/font&gt;&lt;span style=&quot;color: rgba(0, 0, 0, 0); font-family: monospace; font-size: 0px; text-align: start; text-wrap-mode: nowrap;&quot;&gt;%3CmxGraphModel%3E%3Croot%3E%3CmxCell%20id%3D%220%22%2F%3E%3CmxCell%20id%3D%221%22%20parent%3D%220%22%2F%3E%3CmxCell%20id%3D%222%22%20value%3D%22%26lt%3Bfont%20style%3D%26quot%3Bfont-size%3A%2017px%3B%26quot%3B%26gt%3BPrivate%20route%20table%26lt%3B%2Ffont%26gt%3B%22%20style%3D%22text%3Bhtml%3D1%3Balign%3Dcenter%3BverticalAlign%3Dmiddle%3BwhiteSpace%3Dwrap%3Brounded%3D0%3B%22%20vertex%3D%221%22%20parent%3D%221%22%3E%3CmxGeometry%20x%3D%22146.64%22%20y%3D%221044.11%22%20width%3D%22120%22%20height%3D%2252.69%22%20as%3D%22geometry%22%2F%3E%3C%2FmxCell%3E%3C%2Froot%3E%3C%2FmxGraphModel%3E&lt;/span&gt;" style="text;html=1;align=center;verticalAlign=middle;whiteSpace=wrap;rounded=0;fontStyle=1" vertex="1" parent="1">
          <mxGeometry x="560" y="920" width="133" height="60" as="geometry" />
        </mxCell>
        <mxCell id="YeAHKv5niiGHeIey5y5v-43" value="&lt;span style=&quot;font-size: 17px;&quot;&gt;Public Subnet&lt;/span&gt;" style="text;html=1;align=center;verticalAlign=middle;whiteSpace=wrap;rounded=0;fontStyle=1" vertex="1" parent="1">
          <mxGeometry x="573" y="640" width="120" height="60" as="geometry" />
        </mxCell>
        <mxCell id="YeAHKv5niiGHeIey5y5v-45" value="" style="shape=image;verticalLabelPosition=bottom;labelBackgroundColor=default;verticalAlign=top;aspect=fixed;imageAspect=0;image=data:image/png,iVBORw0KGgoAAAANSUhEUgAAAZAAAAGQCAIAAAAP3aGbAAAAAXNSR0IArs4c6QAAAERlWElmTU0AKgAAAAgAAYdpAAQAAAABAAAAGgAAAAAAA6ABAAMAAAABAAEAAKACAAQAAAABAAABkKADAAQAAAABAAABkAAAAAAbMW/MAAA6/ElEQVR4Ae2dB5gkVbn+q9P05NSTw+adJatcBRUDKgZQTCgYEK8BFUXBeE0ICEYuFzFh9m8GVMwYrigG/MuKIBmXZXdnd3Ke6emZ6e6ZnvvW9DLb29t9KnZ1nap3nnp6qqtOnfA7p94+deo73wncvv1uhX8kQAIkIAOBoAyZZB5JgARIQCVAwWI7IAESkIYABUuaqmJGSYAEKFhsAyRAAtIQoGBJU1XMKAmQAAWLbYAESEAaAhQsaaqKGSUBEqBgsQ2QAAlIQ4CCJU1VMaMkQAIULLYBEiABaQhQsKSpKmaUBEiAgsU2QAIkIA0BCpY0VcWMkgAJULDYBkiABKQhQMGSpqqYURIgAQoW2wAJkIA0BChY0lQVM0oCJEDBYhsgARKQhgAFS5qqYkZJgAQoWGwDJEAC0hCgYElTVcwoCZAABYttgARIQBoCFCxpqooZJQESoGCxDZAACUhDgIIlTVUxoyRAAhQstgESIAFpCFCwpKkqZpQESICCxTZAAiQgDQEKljRVxYySAAlQsNgGSIAEpCFAwZKmqphREiABChbbAAmQgDQEKFjSVBUzSgIkQMFiGyABEpCGAAVLmqpiRkmABChYbAMkQALSEKBgSVNVzCgJkAAFi22ABEhAGgIULGmqihklARKgYLENkAAJSEOAgiVNVTGjJEACFCy2ARIgAWkIULCkqSpmlARIgILFNkACJCANAQqWNFXFjJIACVCw2AZIgASkIUDBkqaqmFESIAEKFtsACZCANAQoWNJUFTNKAiRAwWIbIAESkIYABUuaqmJGSYAEKFhsAyRAAtIQoGBJU1XMKAmQAAWLbYAESEAaAhQsaaqKGSUBEqBgsQ2QAAlIQ4CCJU1VMaMkQAIULLYBEiABaQhQsKSpKmaUBEggLC+CuifUdL6hteb4qkhrxIWl2Nl3jwtzxSw5Q+CkXSc4k5ChVNLj6cS9i8NfG4/fkTB0oXsCyypYXRe09VzcoQTcQ5I5IQG3E8BPe+MzI42n1g9cOzJ03Zjbs1sof1I+EtY9vqbnIqpVofrkMRLQJBBUcPvgJtIM6MIAUgpW5xtbFSkz7sIGwCz5kkBQUW8iCf+kvO8xbiUhamaZBFxEQNKbSErBcucou4saI7NCAloEJL2JpBQsrbrgeRIgAW8SoGB5s15ZKhLwJAEKlierlYUiAW8SoGB5s15ZKhLwJAFZDUeNVsbodyb6rxgyehXDk4A5Ag7Pc9h4SVf7a1rMZVWuq/zSw0J1olLlqhvmlgT0EPCPWoGGXwQLRaVm6Wn9DCMXAV+pFarGR4KF0lKz5LobmVsxAb+pFWj4S7BQYGqW+B7gWVkI+FCtUDW+EyyUmZolyz3JfBYj4E+1Ag0/ChaKTc0qdifwuPsJ+FatUDUeFKzRb0/oaXPULD2UGMZtBPSrlc4bwW0FFOfHg4LVf+UQrK7Exc6epWbpocQw7iFgQK1geHilBw0PPShYaF6wEaVmuec2Y05sIWBMrTxqJu1NwaJm2XKHMBL3EKBaZevCs4KF4rGf5Z77jTmxQoBqtU7Py4KFQlKz1muaO5ISoFrlVpzHBQtFpWbl1jf35SJAtcqrL+8LFgpMzcqrdX6VggDV6shq8oVgodjUrCPrnkfcTIBqVbB2/CJYKDw1q2AL4EEXEqBaFasUHwkWEFCzirUDHncPAaqVoC78JVgAQc0StAaeKjsBqpW4CnwnWMBBzRK3CZ4tFwGqlSZ5PwoWoFCzNFsGAzhMgGqlB7hPBQtojGnWh+kPXk9zYhiTBKhWOsH5V7AAyIBmndeykZqls00xmEECaFpwHKLnIi7+5GvBQhOhZum5TximdARUtTqPaqUXsN8FC5yoWXobC8PZTYBqZZQoBUslRs0y2m4Y3joBqpUJhhSsg9CoWSZaDy8xTYBqZQ4dBesQN2rWIRbcKyUBqpVpuhSsw9BRsw7DwS8lIEC1sgKVgpVPT9Usnevu0NYhHx6/axAwoFbfnkBT1IjOf6cpWAXqXF13h5pVAAwPWSJgTK28uOaNJXxrF1OwCjOkZhXmwqNmCVCtzJI77DoK1mE4cr9Qs3JpcN8KAaqVFXq511Kwcmnk71Oz8onwu3ECVCvjzIpeQcEqiiZ7gpqlAYinhQSoVkI8hk9SsLSRUbO0GTFEIQJUq0JULB2jYOnCR83ShYmBcghQrXJg2LZLwdKLkpqllxTDKQrVqkStgIJlACw1ywAsHwelWpWu8ilYxthSs4zx8l9oqlVJ65yCZRgvNcswMt9cQLUqdVVTsMwQpmaZoeb1a6hWDtQwBcskZGqWSXAevYxq5UzFUrDMc6ZmmWfnrSupVo7VJwXLEmpqliV8nriYauVkNQZu3363k+l5Mi02WU9Wq55Cser1ULIxDHtYNsA01M9qeFqdDUkyChcQQFXqXaEL3vjo38qOKgudH7vAjnj8Hsfsn+PhhlDtY6rFIAY/Nzr+wylxGJ6VhUCyP4Ws1p9cK84wnEFSrcSI9J+lYOlnpRFSU7OgVtg0YuFpqQjEdyaQX4FmUa3srU8Klp08BZpFtbITtJviEmgW1cr2igrbHqPPI8x2/vOGNjyiVgEFj72Rlgg+A9FAsCIYjAYCFdgJBKJB9RP70eDaEXVsNJPKrKZWM8m1z9TqajKTwad6ZFU9lVxdnl1JT6TxqazK3WqyHefut7fnFoNqlUvDrn0Kll0kD8WTp1kSqVWwKljZWxFpi0RawpFYOBwLZ3fwqe7HwoFQ4FA5bdpbXVlNTy4vTy6nJ5axg091P/t1LL10IJVZzNiUVAmjydMsqlWJWFOwSgJ2XbPcq1YBpXJDRVVfVdW2aHRDtHJjBbZIa6QkOISRQgQr2iLYioVKj6eX+lPYkvuTi7uTi7sWl/anXNgpW9csqlWxqrR+nHZY1hkWjQGvvTGqVfS0syegC9VHVdY+trr6mKqqvsrqvkr0p5zNgm2poc+1sGtpcddS4oHFxL8WFh5aQjfNttitReSqSrdWFDdeTcFyY63YladQdbDu5Nq6E6trH1dTc3yVvAolBgL9Sty7OH9XIn7nQvz2+ZUFCR4hxSXi2WIEKFjFyEh7PKDUHFvVcEpdw1Prak+sDoTtH3VyM5rV5dX5Oxdm/xKfvS2euH/RhU+Obqbn/rxRsNxfR/pyGFBqH1cdO6Ox+fSGsgxF6culo6Ew+DX169nJm2fm71qgcjmKvmSJUbBKhtapiCs3RVvPaY6d3ljRVXTc2qm8uDSd1FB68tcz4zdMLe1LujSLzJY+AhQsfZxcGCqoND6tvv3cGB79FH899pmtjFUFj4qj352c+fOcwmEusxTLex0Fq7z8TaUeVGJnNnVf2A5DBFPX+/0iWEgMfn508hfTlC3pmgIFS7Iqazy1vuc9HTBKcD7fMB1Ynl5Znl5eSWSwZRZW1E/sL2Qw1K1uK9gUZW0H2VOtTMOBQEjdwdg/Nry1DNYEQzXBYHUIn9jCTeFwU0gN6fjfwr+XBq4embl1zvGUmaB5AhQs8+wcvhKmlZs/3lNq7zQwMU8Np1NDqeRQOjWcwuiPaoA+tbyMba40c2gga/WhcHM4gq0ljJG4is6KKD67Kio6IzCvLylnGMrt/eBAaixd0lQYuV0EKFh2kSxtPLHnN268rBuT+OxMZlVJHkglHlxc2pNc2ptcXPtciaOP5KK/UF2ocnO0aksUn5VbojVHV0V7K+wds8Nkxv7LBid/NeOiYjMrRQhQsIqAcc/hoLLpI91tr4rZkqPkYGr+jsT8vYsLDyzCQHxl3l3ypKeModoQTPZhr197QnXtf1RHu+0ZyBv7/uS+jw5yVEtPFZQxDAWrjPC1k8a4z5aretG90g5aPATe5c/eNh/fOT//zwXvPfvgSRmyVXdSbcMptbDwKI5B+ww6WXveewCDcdpBGaJMBChYZQKvJ9mAsv0Lm5pOq9cTNi/Manp19m/zM7fMzf41nhxQHWP64S/aU9HwlLrGZ9U3PLk2EDEzkD/9+7mH37aPVqaubS0ULNdWjdJ5fmvvezsN5Q/v6TCKjJ7CzB/jbhuNMlQQi4Ex8tX4jDr0TPGOwugryANXDQ9/ddxiBnh5iQhQsEoE1mq0NSdUH3P9Vv0zAZP7U2PXT078bDo9vmw1bQ9dH2kNt7y4qe0VMXWoXt8fHgkfeMUjiXsW9AVnKEcJULAcxa0/saO+vaX+iRqrG2Rjm//XwvDXxqd/P8sB46J4g0rTaQ3osWquEpKNYe7v8w+dt6dobDxRPgKlNXIpX7nkTrlqW6UetVp8JDlw9TCGXeQurQO5zyjTv5vFhgHBnnd3Vm3VGJsHfFTB4u4lB7LGJAwRkNWFm6FCShe49exmcZ4xVjX0hdH7XriLaiUGlXcWuAAN6AAw71TeV80qyAvPr84QoGA5w9lYKrAzElwAf3W73rxv4NpRvAoUBOOpggQADegAUOwqXlwFBWPmQQcIULAcgGw4CfEI8b7LB93jedlw2dxxAQACoyAv4irIu1B1QGbGiCIvGn7VJsAxLG1Gzoeo6BB5tpr5AwetbKgTMUZxFeQl3/eVTeHG0OQvZyZ/NsORrzw49n5lD8tengdjg9Vi83Mb+r66ecP7jRlSZa8Xmw5xeMWWOhNjFFdBbgbg5Ac+qTFDqOvNbcff3HfsT7Z3vK4F5hS5YbhvFwFitYvkwXjg+KXlZc0tL2qE4xQcSh9bdeCqEc0hXkOZ6Hlnx8p8BnPfDF3FwLkEMDcTGHOPmN5vPv2wiVMQL2y97+uc/ev8+PWTM7fG7a190/n0xoUULHvqEWsgx17Y1PbKWM1xVbkxwl9K/Sm19g454cd/02XddY+v6b9iCN6pcpPjviYB/JBsvKQr9oLDVEbzKkGA5kIzPVFHjU+vw5YaSY/fOIXNe7M4BUxKd4qCZZUtfDa1vyrWek4MoxgF42p5YZO9gpVNBbccnCMPXTc29r0JLP5eMGkezCWAH5W2V7d0XdBmo5ceeLyp3iF6pYuxsO53tHe9rQ1DZugUYxZ6bpa4b5QABcsosUPh0cdpP6+l6dn14vEOBICnzVIslocbD2NkGDHBUsNjN0ytwMEe/woRCNWH2s5pRmVVtIveZhS6VOMYlinSCLF2Gi2k6dkN2ODmdOTr4xiep08IPdyODMOpOUcy0T7S+Ix6/FBjFWXtoGsh9rzvwMRPp3UGRrCTdp2gP3A2JARx6pcz4z+awkwdo9d6ODyWPms9q7n5BY34zTBazJ1992heglF22MRrBssLgOfE0W+t/cZI6I8srywOf6VgGQEeVJqf19j1ljajVoXw8fLv1+/Vn5IJwVqPHO5D4a1h6rezWMl9/aDfdqr6KvGWFt4a8MhmuuyaglW1vfL4X/WZjh/eE8e+PzX89XEOROpnyEdCfayCCoai0KuCo159FxwWqv5JtbAtxLqehx0tzRfcot1vb8cGv33Tt8zN/TUevyPhh0EuDFHhIR3jeo3PrLfoyU9nzcTOaNAZsmAwuE7tfFNr26tj6G0Nf2OcT/QFKeUdZA8rD0iBr1iopvc9HfjRLnBO96H9nxge+aZeL0tWelhH5iizlIn/IxHfmYjfmUjcu4ivR4aR9EiwMlhzfFXdiTV1J9XUPaEGX20siGYPq/7k2rZXNkMfracLtYJmQbmwEJGNRfBeVOxhieoU3khgUIM7QRRIxzks8VDGbj9uJ/Q71PVWFQVjvYn7FhP3LsCne+KBJZhlyzUhERa5GDOqOUb16Q6XYbB40u8yTEdFGQsyd/s8NixW1vSchpYXNakONswKJl4L9Fzc0fHalsEv4LXvJE23itUEe1iFycBwuff9nRgHKXxa31H8Wk7dvDYQfpexgXB7e1iCzEKt4KNmac9SdskcdfmcfUn3/MhDC/Bwh4fcgwvnbKmEZxhzvo8FEIqd0uxh5V0I7/KxFze2nR2LbtDrLDAvhuxX/Irs/9gQDSAKwqFg5WPB/dD5htaut7ZZ6efP372A30mMfItdAuSn/eh3xwTr0QQP+4/Hk+Ta0oRYlDA5nMK6hMtTK+rShJPqAoXmSnRYAjlfglVBrDyYXZQw3ByCnW20s0JdmrCrItoZQb8jJ6zTu0YF62D+AgqGLNvOian2LmHzU6Ix/rj/E0NwJOt0sd2dHgXrsPqpf3Ltpku7zY2sI6LV1OrkzTOj35nEM9dh8Rr8IhYs9NqantsgNv4ymKCB4CjjSkJd8xmGFJl5fK5kDq78rOBBBo+ca59Y9xkLPj+65rO68rOCuzdYHQxVh4K1+FSXfQ7VhAIV5m9pA5k+IigyOfWbWfFyRCYF69G0IMSYpNX+6pihedSPXq3+R/8X3uUH4b2LfoQe5ULBOkgCduobL+0Wt+BHoRX4jzeA0KmxG6ewQnKB0wYPiQULNxIm3Ha8sa31JU3luuENFshFwSG44z+ZHv7qGDovmpyt5xu/K81nNHS8rjVvzpb+mPGEuPcDA+iz67/EwyEpWGrlwhB085U95mbYo93Dpfr4TVO4E+xqKDpvJJhKdLy+pe3lzeV9dLKr1KWOB4+6Yz+cGvnGxLp9iU7OtmQM7zEhW03PrDfhOQv9QbxAHPjMqJfe8Jqj6nfBwoPJhg91tb5MwyVxQbhYOXn4y2N4skB7KhjA9EFDNxI6WY1Pq4ud2aS+X4+W5wnLdEkduBA2aJjHN/mL6Zk/xfOerQxxtiWrcObRdWG7+jLHeEXhfQjWefV5V8vXZg21J1ZvvXqDibXO8WZt8DMjGFO3pRFbjAQ9O7gqx5Z9vx47sxHv160M91rMj0sux2gaFr+Z/MUM1p5wz3vPhV1Lu9/RD5u+7re1Nz/PmGzhhenRP9gKb0X6DfpcUhc2ZsO/goWpsJg5bPTGTg6mBj87OvnzGdt7VdYrFbflxE+mseHVG2zHGk6pg2cb/KRbj1miGKAIc7fNz94Wh62svS80bYSAWVO7L1JlCwbJMEvWHzOa64YPdNafXLPnvw4sz/pxrrsfBQv38+aP9xgdX0f7GPzc6NgPJvMeK/S3NsdC4kaFQ5usTxvVIdeTatHnwqAv5r4ZFWjH8mw6IfSkFh9egjUs+lNz/38eRhimo3L4QsjWrjftQ+3gh7P66MPcqIlzgmf/437eB8nz4UR3341hoV+9/Ysbjc2wzyhjN04OXDPqmLV6icZWMNpVfVQVlEv1iimtfq0rVOL+RejUwkOLpl93lIizWG4KnMVM1Rc39byrA6anBc4WOYRS73n/AXiqKXLem4f91cOCQ5i+L2/KOi/WWZ/xfybg2BMTWXSGd3MwNHGswL6+CDt6W9GeCtWUfHNF5UbVmhyf8EdoYjy4VKVeVVLD6aX+JOY2rX2mMPCcHEhBs0qVYlnizSgTN01P/3YWXpvbz23ROb8HPz/qCOzGKJZZLEuuy5KojwSr6Vn1W6/ZoN9+HUNCBz49PHb9pOKtu2O9neG2x/2PTbl1/ZiC94yRtgh+6iPtkYrW8Nq++olHy1BdSN3gWMr4G65DCeTurSqwPl2Jr2DDo1x6LJ0aW/scX06PYj+NI37wM5FFgvbWf+UQ/KZtuqIHXeBcTkX3A0rPRe0wytv7oQH3j1QULYWRE34RrLZXxDZe2qXfOhwDQHsvGcDPuxGYXggLgUgeSGErWpigAr8oYSgXDNbrQjBeR0/t4BYJBNcs2rMjZRBEbJll1WI7u69+zSrUfGYZOgX3dfRNcDhoPOQ+8LLd7a9t6X1Xh06rYDxOwqr+4bfu84O4+0KwOv6zZcMHuw5vGEW/4Te///JBvGsrGsLnJzIKLDCx+RxD6YqPF9Aj3xiH00c88Ykdxq/nAa44tn9p88MX7PO8ZalZdxjrqFy/gwWd9KsVxnHvf/HDVCvX16r3M4h3iPef9TCUS+eIRMMptRif1T/iISlBjwtW68ubMZlZZ92MfGvigbN3q2M6/CMBFxDAS5L9nxz+9xv36jS5goUE1qDW+SDpgvKZyYKXBav5jMbNV/ToGSGG4RLsj+GEyCcjl2ZaCq8pE4HZv8Tvf+nDWG5HT/owuNvy8V49ISUN41nBgp3Rlk/26HlDnBpNP/iqRzAlUNIqZLY9TwDvQND3h1shPSWNvbARKyHqCSljGG8KFtwYbL9O1/M8HFfd/9LdGLqSsfKYZ/8QUB8CLt4//BVdywJ0X9iOV4eehONBwYIlUd91G/UsmYnJHA+9Zs+6sxFPVjAL5SUCB/57GKNaeobh4S7J0HQfWSh5ULB63t2J5Qk0KwDORnadvxdGDJohGYAE3EMA7w0xI0dz7r1qB/8/Bsyk3VNAcU68JlgYdMTSI+Iy4yycsahGK0mP2rBrlp8BZCYAs5u9HxzQ7GdhwQ64dpC5oAXy7inBguH1lk/2ar4WxNJMuy/uh9V1AR48RAIyEIBm7f/4kGZO214Zg2sHzWASBfCUYMFNBxZcEdPH6+GH39pven6/OHKeJQHHCMBsEP6ONJPbeEmXl/zQekewqo+qbD1Lw9Mx5tP++/V7MdVWs5oZgATcTwCCpWmOA4e6WK/E/WXRmUPvCNaG93eJra4wTvnIxfv5TlBny2AwKQjsff8BOOwWZ7XrTa16XpqLI3HJWY8IFvzMYklBMdOBa0bidyTEYeQ465FKKzdsT2DEa+6H37ZP/LIbLnbhaavcuO1J3xOVpijdF2p0euE8F2tS2sOs3LHUHKPPWVK58+ny9D2DcWlPcuDqETFtmL8bcmcqjq2MZ70gWLWPqRYbXmGIfd+lg5qvgctYDYaS3vABA469DMXsn8DwjKaOIXjlb/R7E2L/7vBQ1nZuzAPF9YJgYf0bcU0MfWnMSz4YsCIOXKdmneSJC86zBQkA3dare7GyacGzUh7MKKrTUeH6mDBxwLOhlKXLybT0BYDr3ubTG3JKlL+bGkkPfWUs/6jk37Gk3TE3bIVvXMnLUYbsR3srsLofPHmUIe1SJomlgyZ+KpodHW4IqSshSv4nvWA1ndYg7mtgHXlPWl3VHF+NtZ663tLmJSubkt5NgUig8/xWQMMYQkkTKlfkQ9eNijtZTc+hYJWrch5Nt/FZIkPe9OTy+I1Tj4b12n/17c+7Oo7/zQ74KcTd6LXi2VcejFi1vKTphF/v6H1vJ9bHti9id8WU3J/CEr+CPMErqexPhXJXHug3PElkzTB+w5TnvVzDMnDzx3oec8tRHa9vDTeGBO3Vh6dC9SEMcZ7w+x1bPtUb3eD9J2h1kafif3Cg3PCUuuLnJTgj9yIUmOosdgjrn2UmKzoimJmEpVamfjs7/sOpuZ3zvl6QJqDUPq6m7ezm5jMaPO/mPFdm5u9awLqNWG4y92DufsOTa6f/V2JflXILlnj5toVdS4u7dTmWza1Rqfch37EzG7Glx5ehXFO/monflfCRcgUUDO3FzmhoPr1RXRHWl3+Tv5jpuqCoWaLsTrLkFqyqHZWCNjn7xznBWW+firSG28+NYVueWcGCUXD+Bdfgy1PLniw1nvswOtP49HqsdoWCe7KM+gs1e1tcIFhVR1Wq7kyk9VQid+1WHyWy+Z6/h46PFYxqxV7QiA1tdPGRpfg/Eup2RwLWHvrvAReGDDeH6x5fA5O0+ifUqM1A7sFYOwEv3LeId4XF1gzGwt2VG6PymiXKLFhBpbK36LM6mgD8tdvZEGSPK6BUbavEBgNCFAXPjIn7F7DO8ML9i4kHF9U1rt39q4uuU/WOKqwtgq362Cq8apC9QkqUf8wrxHTo6r6iDx+wRKNglQi+KFosmC74XYXTftk7EaLCWz6H+x8zxrFlYwIutPKlR5bUz/5kcjCdGkzBKMRyOmYigIljRVdFtDsS3RCF28yqrdDZKJ77zMTly2tg3yAQLPi5lJeKxD2ssJC7zrUnZaw5eG5re0XMXntRGIhkOy+5QGARgp5Xcii9PLkM8UpPZndWlueWM/OZlURmZX4Fn/p9t+I5JVgdhCWUutWGoEF4sovEHt1awpGOSLQrov4UlfgPC1DiXSpWBS9xOuWJfnla9EsTlln6JRasUJ1o3MLDgoUFX0e+Ot755ta2c2Jiqw6LtwsMAio3R7GJ48FEgkwys7qiQLnUbQWfGNZdxQwEKFQgrBzciQTcYLWIHI7/eBpG4amhtGcFa1bkojJUL7pxxHVd9rMSC5YSFNp2Z9w9JGOt5uE6tf+KIaxSh6k5LWc1ldfUCKIZqih5n8gaMPVq9Komfjo99MWx5GDKemyujkG8FFRAeOO4umCKxIIl9nQcbpC4aDrbDNas3nf54IH/GcFLwNazmsQ+dnTG6clgCw8tTfx4auJn0zDy8GQB8wolnvAgvnHyonLbV4nv6pU5UeML+WaSCtrf2A8msVVth1f7ptiLmjAq5LZ2Vpb8YFgAUx0mfjTlt5W9Qw2iDq/4xilLTelPVOKWvTIv6vjC3gQDul41lSxYwXAwgmWBD1w1UntiNawoG0+tqyr+brtgDN44iHf2M7fGZ/80N7czgcdAbxTKUCnENh/Lwl96Qwk5H1hiwcLgLsZNBet61R5fBQtv55mWN0VgyVqHYllzTE/JKlfdybUe9lIA4FgTF9aws7fOzdw6t9Tv9SEqYQvDkCJWkBIEUW3upP2TWLDAfOGhRYFgYUzHh4KV2xTRNDF9X53BH1Sqt1fWPrYaU4Lxqb74k3jg9WARMcsXfoEx3RefCw8u6reuyEXkvX34qhd4iIOywwe8vKWWXLD+vSRY2BaeNPSsNClv5RnIeUbBCrLYxm5QvYPBMrMGjvCPqYLheyUsM7dE3WBwIC4OHu7wrLe4O4kJRgsPLEKk0hMiayNxbB4+W3+yyOESxg3QB5e3+JIL1oOi2YK1j6vGw7z332Ebb30YjZ79cxzbwUsDSrSrQlUu2JRvjeJBUt06nDDgLJh31WB1JK1uw+mlvRAp1f4e1ttS32kFS1qKg81nirw/oytaikQdi1NuwcLiXWjExeZ5AmLz8xtgrOQYTVkTWlUg69gOSdhaSWBxDtlSt84IpvLAQlq1TW9Y+1zfrxZNkMoHsqpAjDDouzK7shxf+5xbgXrivRUs6SFPayKV8onxQT4cO75jRo5gUg5SmLt93o50yhaH3IKFtj7/zwXB8ieYwjLy9Qn+MptrX5h5s7gbm4ZPsYPm7JGgatSOz4gShL/mQAAPcdgysH3HDj5TqhG8uZzwKp0EWl7eLAiJWsD7U0EA95+SW7DAd/qWWYFgwfUivNnBvtn9NSFvDiFDmJejJLNmcSLjOHnLKEXOsYJU2zkiwYrvTEhthIVakHhWUbYNTf/vnNgvCiavyF9KKe4XZrLMBDrf2CqepDUls3PkLFzpBQvvtmf+JPIsWrkligfDMjclJk8CJSaAccasp7Ni6cCD0NQvRWvqFLvQVcelFyzQHP22aKUQBMDSDPSc66pmx8zYTmDTZd1i25Txm6Yx5mt7ug5H6AXBghNrvPYWgMO7rQ0f7BIE4CkSkJoAFrJufIZogU4sRDL6rQmpy5jNvBcEC2NYw1/WWIw+9vzGlhc3eaDCWAQSyCOAp4eNl2j8Hk//YU5et8i55fWEYCkKPIdozsjfdHk3DLtzC899EpCdAGxKtn12o9g/B17jDlw9LHtJs/n3iGChk3XgkxpVgif8bZ/b6O05wN5olCyFfgIbPtBZ9x814vCj350Uj5mIL3fVWa8I1poJ7/TvRa8LwR3zTrZ/YVMAZo38IwH5CbS+rLn9vBZxOTBtYOjzo+IwEp31jmABev9lg5rvQeqfXLvlU70e8FUgUSNjVktBoOk5DZuu6NaM+cBVw5o3hWYk7gngKcGCp/N9lw5qwoVD4Y0f1hik1IyEAUigjATwu7vtmg2CWbTZvOGZA4sDlTGftiftKcECnambZ+AVVxNT+2taNn20m/0sTVAM4EIC9U+s7btOe2QDv997P3jAhfm3kiWvCRZY9F8+CFckmlBg/r71072av1Ga8TAACThJoPm5DTu+tllsI6rmZ1XZ894D3vN74UHBwhP7rjfvhacBzWaE9Rrw3lC77jUjcjZA5SaNhQKdzY6sqcmIEXObt127Uc9ilAPXjMD5kqx1UzzfHhQsFBYvcXdfvB/WvZp/TafVH3P9VszD0gzpngDdF7a7JzPy5qT7bW0yZT6o9Ly7Y9MVPXpm8qsrxX5Jw5RaprLn5NWbgoUCwhfd/k8N5ZS06G710VXH/ng7PJ0XDeGyE7EXNna/g5plqVYg+uhfW4rCwYvhNHHHVzZ3vVmXws79fX7fJQMO5s7RpDwrWKA48s0JLPOrByccCR393a2aJi16onImDO63LZ/upRGsCdoYAdjyyV6JFB9rteEHteFpdXoKu7hr6eEL+z28HoeXBQsVPPCZkeGv6XKRjHEB2Dpsv24Tfs30tIyyh8HUyON+3td4qnDKa9lz6bIMNDy1DtBaXipN36rt1bFjf7QtuqFCD0io1YPn7ZHdRZ+4pB4XLBT+wKeHR7+td55607Pqj/tFn8CFqZimw2ejvRV9X9m04xuba46X5nnWYUTryVUfU6Wy+vrmyo26bv71C8u1g15/31c3b7q0W+yTbz17WBIJauX5lYOld5G8XmGCnf4rh7AcW+f5rYIw66ew5sLR39k6+v3JgauGVxZ0jNuvX1mmHaxmhg2vhIa/Mjb7t3mx/9Uy5bGcyWLZK1S9zkeqcmY0J+2mZzdsvqIbS5fnHBPtLjy09NBr9yxPe3/ds8Dt2+8WkfDQORiLbvxQl56XLNlCYxWZfZcMzv61DE77T9p1gjnwMEAbu3Fy4qZprtkXbgy1vKSp7ZwYXM6ag7mz7x5zF1q5Cr+XGz/SjZfX+iPBQji7L+z30vwbQdl9JFigAKO7Lf+9IRg1MPkZC1gcuGokPe7o6t6mBStb03AnEr89MXnzzPTvZr1nOihozTiFpclwtzc/v7HhlFrBAsjiSLJnHRYs2DC3nxvrvrjD0LsU/Djt/fCAh0fZ82rKX4KFwsMXB4xFMUCQB0LwdSWRGfri6Mj/m8ByVYJgNp6yKFjrOYFyzd+5AJ/3s3+KY4xj/bj3dio3RxtPrWt8en3dE2rs8sbhpGAh23CKW3NslYGqWVVgHepVe6tiHHwnWABR0RbZ9tkNtSdqeBHKQwaHjfs/MTzzRw0PNnlXmftql2Dlpo6ZZVjlKX5HIv6PhLrUoEPam5sFm/cxfF73hFrc6nhJgiW+bY5dUZwRLBjc976v09AzIEqKH9G9Hzgw9ZtZ20vt8gj9KFioEjws9P5XZ8drNXwJHVl58X8mBq4ewW1/5Ckbj5RCsHKzh/GOxL0L8NG6cN9i4r5FjNblnnXtPnwB1xxXXXNcFXoieDFa6oVFSi1Y4aZw94VtWOrG6KMrlpvffdF+b7g8NtrYfCpYWUxw9A6PQhj1MEoNZvTojWs6ZTYa7Xr4UgvWekLZnZX4CiYzYVt6ZEn93JfEqvFYUz4vmJNfcQ9j+Bl9qMqtlXC7WIXPbVH9b81syWrpBAtS1fmG1rZzY6Fqw3ZFY9+b7P/EEJbRtqWM0kXia8FCbVV0RWD3DH8dhmtuFYtOz2EEIXHPguFrtS4QCxbmXpjJsFaieefxnjE1lEoOplPDqfTkMr7iE2Y++FyZXVlZzFh8qIR5UaguGGkOYzwxHAvDK3kkFoFIVXRH8HyHx3b973Pzcq7z6/ydCfGwQCkEC5oLqcLguokp9+gXY86NDx8DcyvU74KlsggosHjofU+HTgu9XHzYh3xgzZ7Z2+ycGS8WLNxIGLXpeUdHOQ1cM8rKwgpGUjKJzEpiBWZueFGlbiuK+sYKi9dn1OfuQFjByy+Mgmc/8f4rVBMK4rM2WEbHPvP/Whj87CgMVjQ559W1la9Q4fbXtsDdggmpQrpwxbfv0oH0uPctrcSQDbwsE0ck8dlVLMU6MfuXOFwnm5gCjc4ONowEjXxjHL9+zrxgxvD5g+c+gnS7L2rXXIOgJFUTVA0ITDxNlyQzuiPFyN3AtaN4otd9hQ0B0ag6Xt/a9Ox6cxqNXu2+jw7BM6UNWZE/CvawcuowoLS+vLn3vZ2mpxPCXGvs+ilsFu22DP3yYxAaixHA7zPWi80pDHcPEcCMBdzwEz+exjuTQ0cVxRDn3Av17KODCbfreLFT+zjzE6cmfzGDeRp+MGHXgxRhKFj5oDAgisdDSIBpB8roZE39dhaDo6ZfJpq4kWANi/kcLWc1NzypttSjP/nIXPwdCjXxo6nJm2czGHQ74s8E5yPiKHAA7wpaz45hirV4ucACV+Ycwmyb/R8bghV7zjHuUrCKtAH8Km68pBudlyLndR3G6zYYIk/8ZDo1asxQ3sqNBGeEmMINLw51J9casunXVSQZAuEHAz8VM7fGZ26ZXeoXWWxY4XwkCTj8aDqtAaNU6isRA5Mp8mNCf2rgM6PjN07B7jf/nO+/s4dVvAkEFNg99LyzA04RigfSPoNmN3fb/Mi31GEy7dBrIWy5kfAOAXdO49PrGk6tK4Vdpc6yOBYMA9Izf47P3jqHFyB6HGQjY7ZwhjbVPb6m5UVNzc9rsPhUDqkd/d7k4OdGve0ixkqT4KB7cXqrChbgwTg6TPvgTte0ERCGWuEqAG+m9AtW8TwZOANDqplb57Aplyt4SKl5bA1Gf7FVH1VpbvTXQNrOBF1VYLIPsNnNefN9GIjBK1nszCYYx1gsMX7VJn82M/j50eSAqEtoMRUPXE7B0qhE9UfvOxMTN03hRQ9ckpoej5/42bRGSqU8jScjbJNrecBrdViK45kXn5XbKqs2RfUsalDK3OmNG3c13FHAtHXhgcX5uxLz9yzC5FXvxSUIh4GqjtcZniyRn5GMgmnqMLPwp+V6Pg2t7xQsLUJr52FwhI46DBfazm3p+M8Wo4OpmIGcPOCWX04MP6szCh+dXYTeVrQnUrWtshIG5fjcHI12RWDDWfaRe/iZgM3q0t7k4m5Y4S/hE7e0Y/PP9TSLqV/PWBKsjDL1u1m0q8WHvTwvXQ9J/WEoWPpZqTNOYSM6+q2J1rObO9/YCrNsnRdP/Lyc3StxJtFtyfa/lFsOBVRnxrSv2Z3D9LxT3Ym0RtC7xBhNuD4Uwo5Fy0/YliZWYLqNwRr1M76iGtaPwKo+rX6ubeWdG3SIRfG9+bsXMA3TxPggioa3MSPfHBe/Eyiesn/PULAM1z1aGwxNx34wCdMnPCRqugRRrRx+JZnVH/KMW1E0KTqgwGYdEhasDqqG7OFAEJ/ZDQbu2AmoJu+Z9Cr6ROoGI/i1nZWljDqzZz4DoTSM3m0XrCoY4sRUG/35whvA0e9OYmTd876M9TMxFJKCZQjXocC4/WCvgA3z0TrOizU9t6HYSDber6MTcehKb+yhizQP3fFcuQzWDn6KdAoW/JGNfX8SDcb9PUeDDBwNTsGyihtzaHffmcADVNurYjCUP9I14KSLnwetFt7316vOeQ6kBIYvmGWJoS70x+fvsn+SvA/xU7DsqXSYhsLhDN71ND6jDubm8H6Z7XBhjGb6D074/LOnGIzFOAFM+ukstMTp0p7k2PVql8qD/WvjlOy6goJlF0k1HozLYFY9NvSzYKED5UL/y7eui+wk6+K4MO8nV7AwSoUjsCCBdZiLcy1r1ihYJak5vPPCAq7YzPkSKUmeGGlpCMD/J+wt8CJ15g9zEz+bgXkw3jCUJinGqlCwStsICs65LW2SjN1xAnBYnNyfhNWL4yn7LkEKlu+qnAW2nQA6WbbHyQgLEjDsUrpgLDxIAiRAAg4QoGA5AJlJkAAJ2EOAgmUPR3tjgYdMQYRHmnoJAvNUMQJijByQKsatvMcpWOXlXzh1sY+RtlfECl/Go0YIiDGKpiUZSYVh7SVAwbKXpz2xiV07dF3QBgdb9qTk11gAEBgFpRdXgeBCniopAQpWSfGajDwu9OSNqcV9X9zU8pImk7H7/jKgA0BgFJAQV4HgQp4qKQEKVknxmoxcnSKbFBkfwuUeFiXb8uleLJlhMg1fXgZcgAZ0Yp+FgI8q8CUhtxeaguXGGsLsM8yY1cwZZv+c8Lsdba+OwbuLZmCfBwAigAIuQNNEAficAKhJqSwBuAhFWbBrJ4q12o/7VZ9Oj8ypofTQl8bGb5rivMUjyaIz1frS5q63tOn0vA6puu/5u1JjxhY6OjJdHikFAQpWKajaEyfW7Nl6zQb9cWHa7fgPp+HJhG+4stDgCxQLiLS+vMnQg/Mj79w/KZvDRf2NRPaQFCxX1+Cmy7rhZstYFjPK3M55rBiMxVz9uVoU/Dg3P7chdmZj/UmG15SFj719lw0aA87QDhKgYDkI20RSAWXTR3uwNqeJS+ETdfa2+Mwf41jpC77STcQg1yXwPY/lY+GPrOGUOvEbwGLlgvuqfZcOKqK3HcUu5XGHCFCwHAJtPhlo1ke6MWBsPgZFgX/eub/F525XF8vxUrcLnSksYlp/ck39k+uqd1RaQQQ/6/0fpVpZQejEtRQsJyhbTwOmQ3g8tMG7VgbitYhlxxL3LSTuXcQaf3ItBgE/rli+tOb4qprjqmtPrK7eUWV9OTK4AMJjIO0YrLdSB2KgYDkA2Z4kKrdEt1270WI/Ii8rWBBh4aElrIsH5cLKyUuPJJNDKRc9EwWUaFdFdsFE6FTV9kosWx2stNMWB33P3Rf1w51xHhl+dScBCpY766VwrmBM1P6alu4L20J1ocIhLB+FhGHAC5MZ8aoxNZiGfqXHl9OT6rY8s6yIJmWbTTuohBvDWJtW3VrDUKiK7ghe8EV7Kiq6KoLRUpmYYTHEwc+PYVlvOgg1W3NluI6CVQboFpMMN4d73tnR+rKmYguLWYy/2OV4eFyeXoHxBFYVxDKo8GeQSRzcUdccXFlbfHBZUdZ2EIlqzhrCkoXqDrKKgfBQTRCrGQbVT3UHq7HC4CDcFHK+IOM/msaiIVwcsFhdu/Y4Bcu1VaORseiGis7Xt7a8tMneRySNVCU/jf4jllwe/sZ4cn9K8qL4NPsULLkrHr2tjtfEWs+Jib07yV1IO3KPZUHGb5gc+Q6XXLaDZvnioGCVj719KeORCv5S0Ntqema9ORMk+/LirpjwrIp1IdGrmv1zXK73oe7i6JrcULBcUxV2ZARzD5tPb2w6rb7+ibVihwR2pObeODCncu7v81ggktOY3VtJpnJGwTKFzfUXhaqD9U+pa3pWfcNT6/zztIjnPiwLOH3L3Nxf42I3066vQGawMAEKVmEuXjoKAy7Mqqs7qQYbnEB4qWgoC9wqxHcmsGEGJc2pPFa5RxaHgnUkEy8fgXGTaiZ+bHX1sTAWr9LpvsZVROD+JXHf4sL9i4n7VWN9sf97V+WcmbFOgIJlnaHEMcA+U7Uj3xqt3FJZtQWfUVhvuqo8MFhFv2lxT3Jpj2qOr9riD9IiwVVV5GhmKFglxI3xIwyplDCBEkQNk85IW6SiPQKjczw/Yj/StraDr+0RGyYzHpFnTOVLjaZhT4+Hu/TYcnosre7gKw6OpaVbbkvGSj+iTtx7wF0/p+7lZDxnGz7U1fHalsHPjWIzfnXZroBArOxNLu0tPLcuK2fh+lAgGoDBarAiEIwGg5WBAD5xpOLQPgoAz+iryUxmaTWTyhzax5HUKgw4V5Ory3MrMkqSoG66396ObeRbE/s/NiQIxlOmCVCwTKMTXZhVK4RA88WnXJolKFhWzgQB/Hwqq1YggB8qfFKzStEYQufHLihFvH6Oc12tshDqT67FDl5j+ZmJ58u+rlbZktY+thq+uqQbEHB/NVGwbK6jPLXKxk7Nspmyy6LLU6ts7qhZpaglCpadVAuqVTYBapadoN0UV0G1ymaQmmV7RVGwbEMqUKtsGtQs21i7JiKBWmXzSM2yt67sdN5ob87kik1TrbLFQfvGa2+5isbcFiOAqkSFFju7fhxj8Gge61+5Y4UABcsKvYPX6lQrhMYLbw7E2kDcHVGgKlGhevJCzdJDSU8YKc0aTtp1gqBsO/vuEZy1/ZQhteKrbtv5lzfCbIVm7RjEOSmLrYOr7hQxH51n2cPSCapwMKpVYS5+OgrNYj/LsQqnYJlHTbUyz85bV1KzHKtPCpZJ1FQrk+A8ehk1y5mKpWCZ4Uy1MkPN69dQsxyoYQqWYchUK8PIfHMBNavUVU3BMkaYamWMl/9CU7NKWucULAN4qVYGYPk4KDWrdJVPwdLLlmqllxTDrfmWoa1DKRoCBUsXVaqVLkwMlEOA/awcGLbtUrC0UVKttBkxRCEC1KxCVCwdo2Bp4KNaaQDiaSEBapYQj+GTFCwRMqqViA7P6SNAzdLHSVcoClZRTFSromh4wiABapZBYEWDU7AKo6FaFebCo2YJULPMkjvsOgrWYTiyX6hWBaDwkGUC1CzLCBUKVj5DqlU+EX63jwA1yyJLCtZhAKlWh+HglxIQoGZZgUrBOkSPanWIBfdKSYCaZZouBesgOqqV6TbEC00QoGaZgIZLKFgqN6qVudbDq6wQoGaZoEfBolqZaDa8xB4C1CyjHP0uWOxbGW0xDG8vAWqWIZ6+FiyqlaG2wsAlIkDN0g/Wv4JFtdLfShiy1ASoWToJ+1SwqFY62weDOUaAmqUHtR8Fi2qlp2UwjPMEqFmazH0nWBs/3KVnYXGAg4tbNCBNggxAAjYSMKRZaMw2Ji1FVP4SLFRw+3kteiqGaqWHEsOUgoB+zUJj9ptm+UiwqFaluLsYZykIULOKUfWLYFGtirUAHncnAWpWwXrxhWBRrQrWPQ+6nAA168gK8r5gUa2OrHUekYUANSuvpjwuWFSrvPrmV+kIULNyq8zLgqVfrUa/TQuG3FbBfXcRgGahierJk+ffG3pWsAypVf+VtLfSczswTNkIoIlSs0Dfm4JFtSrbjcWES0aAmgW04ZLhLVvEVKuyoWfCJSaQfRTQY/ysJ0yJM1uS6D3Yw9JZVehg80mwJG2KkZaSgKF+VikzUp64PShYekBSrfRQYhh3EtCvWe7Mv5Vc+VGwqFZWWgyvdQMB32qW7wSLauWG+415sE7An5rlL8GiWlm/TxiDewj4ULN8JFhUK/fcacyJXQT8pll+ESyqlV13CONxGwFfaZYH7bAKtifYOug0dyh4uYmDO/vuMXEVL/EGgZN2neCNgritFH7pYbmNO/NDAiRgggAFywQ0XkICJFAeAhSs8nBnqiRAAiYIULBMQOMlJEAC5SEgpWClx9PlocVUScArBCS9iaQUrMS9i15pNiwHCZSHgKQ3kZSCNfy1cSVTnmpmqiTgBQIZRb2JJPyTUrDidyQGrh2hZknY3phlFxDIKLh9cBO5ICuGsyCr4ejQdWMg3vmG1prjqyKtEcPl5gUk4D8CGLfCk+Dw18fj/5BSrVBjgdu33+2/imOJSYAEpCQg5SOhlKSZaRIgAcsEKFiWETICEiABpwhQsJwizXRIgAQsE6BgWUbICEiABJwiQMFyijTTIQESsEyAgmUZISMgARJwigAFyynSTIcESMAyAQqWZYSMgARIwCkCFCynSDMdEiABywQoWJYRMgISIAGnCFCwnCLNdEiABCwToGBZRsgISIAEnCJAwXKKNNMhARKwTICCZRkhIyABEnCKAAXLKdJMhwRIwDIBCpZlhIyABEjAKQIULKdIMx0SIAHLBChYlhEyAhIgAacIULCcIs10SIAELBOgYFlGyAhIgAScIkDBcoo00yEBErBMgIJlGSEjIAEScIoABcsp0kyHBEjAMgEKlmWEjIAESMApAhQsp0gzHRIgAcsEKFiWETICEiABpwhQsJwizXRIgAQsE6BgWUbICEiABJwiQMFyijTTIQESsEyAgmUZISMgARJwigAFyynSTIcESMAyAQqWZYSMgARIwCkCFCynSDMdEiABywQoWJYRMgISIAGnCFCwnCLNdEiABCwToGBZRsgISIAEnCJAwXKKNNMhARKwTICCZRkhIyABEnCKAAXLKdJMhwRIwDIBCpZlhIyABEjAKQIULKdIMx0SIAHLBChYlhEyAhIgAacIULCcIs10SIAELBOgYFlGyAhIgAScIkDBcoo00yEBErBMgIJlGSEjIAEScIoABcsp0kyHBEjAMgEKlmWEjIAESMApAhQsp0gzHRIgAcsEKFiWETICEiABpwhQsJwizXRIgAQsE6BgWUbICEiABJwiQMFyijTTIQESsEyAgmUZISMgARJwigAFyynSTIcESMAyAQqWZYSMgARIwCkCFCynSDMdEiABywQoWJYRMgISIAGnCFCwnCLNdEiABCwT+D+PS2hG9p/WNwAAAABJRU5ErkJggg==;" vertex="1" parent="1">
          <mxGeometry x="400" y="960" width="80" height="80" as="geometry" />
        </mxCell>
        <mxCell id="YeAHKv5niiGHeIey5y5v-50" style="edgeStyle=orthogonalEdgeStyle;rounded=0;orthogonalLoop=1;jettySize=auto;html=1;" edge="1" parent="1" source="YeAHKv5niiGHeIey5y5v-46" target="YeAHKv5niiGHeIey5y5v-45">
          <mxGeometry relative="1" as="geometry" />
        </mxCell>
        <mxCell id="YeAHKv5niiGHeIey5y5v-46" value="" style="shape=image;verticalLabelPosition=bottom;labelBackgroundColor=default;verticalAlign=top;aspect=fixed;imageAspect=0;image=data:image/png,iVBORw0KGgoAAAANSUhEUgAAAZAAAAGQCAIAAAAP3aGbAAAAAXNSR0IArs4c6QAAAERlWElmTU0AKgAAAAgAAYdpAAQAAAABAAAAGgAAAAAAA6ABAAMAAAABAAEAAKACAAQAAAABAAABkKADAAQAAAABAAABkAAAAAAbMW/MAAAT+UlEQVR4Ae3dT4xlVZ0H8Hqvq7tlbGuajiAhdpQNMitiJGpY4kKiiwkTdsZkwiQuXE33rGThwoUrhrhyMQsGQ1yYkBgXGNwYN5IZBxesRDaNf0L4Y7dt0QjVXfXenAr4oDHv1T31znnn/u79VEx83fe8c37n8zt8+9brSzG5fGHLFwECBEIITENUqUgCBAgkAYHlGBAgEEZAYIVplUIJEBBYzgABAmEEBFaYVimUAAGB5QwQIBBGQGCFaZVCCRAQWM4AAQJhBARWmFYplAABgeUMECAQRkBghWmVQgkQEFjOAAECYQQEVphWKZQAAYHlDBAgEEZAYIVplUIJEBBYzgABAmEEBFaYVimUAAGB5QwQIBBGQGCFaZVCCRAQWM4AAQJhBARWmFYplAABgeUMECAQRkBghWmVQgkQEFjOAAECYQQEVphWKZQAAYHlDBAgEEZAYIVplUIJEBBYzgABAmEEBFaYVimUAAGB5QwQIBBGQGCFaZVCCRAQWM4AAQJhBARWmFYplAABgeUMECAQRkBghWmVQgkQEFjOAAECYQQEVphWKZQAAYHlDBAgEEZAYIVplUIJEBBYzgABAmEEBFaYVimUAAGB5QwQIBBGQGCFaZVCCRAQWM4AAQJhBARWmFYplAABgeUMECAQRkBghWmVQgkQEFjOAAECYQQEVphWKZQAAYHlDBAgEEZAYIVplUIJEBBYzgABAmEEBFaYVimUAAGB5QwQIBBGQGCFaZVCCRAQWM4AAQJhBARWmFYplAABgeUMECAQRkBghWmVQgkQ2EZA4NgCJ267+9S9D5+858HpubumO3dsTR2nY1tWeONsf7b76uzKpRsvPnv9hacP3nipwhqbnnJy+cKml7TeAASmO3fe8tXvnr7v61sTN+kR+jmf7T3/1NvPPDrbfSVCuUtrFFhLaVxYJrD96fvPPPLj6Znblw3w+/0UmF17/doTD+2//Fw/y+tSlT8euygZ875ASqudb/5cWr0vEudV6lrqXepgnJI/XKnA+rCIX68QSN8Jpnurre3TK8a41GuB7dOHd8c7d/a6yOXFCazlNq78nUD63Mq91d+pBPuN1MHUx2BF/61cgfU3Cf9/lED6O8HDT9l9xRdIfUzdjLgPgRWxa21qTk8w+DvBNvTFV51MD7sZ8EtgBWxao5LT81aNVrZseYGg3RRY5Y/CUGdMT4cOdWsj3FfQbno0eYRn9ZhbPnyWffnX1e+cn1394/LrrmxaYHr2/Nlv/37Zqqu7uexdzX/fHVbzFsQpYOW/eSOt+tbI2dU/rCppZTdXvbHpNYHVlN/iBAjkCAisHC1jCRBoKiCwmvJbnACBHAGBlaNlLAECTQUEVlN+ixMgkCMgsHK0jCVAoKmAwGrKb3ECBHIEBFaOlrEECDQVEFhN+S1OgECOgMDK0TKWAIGmAgKrKb/FCRDIERBYOVrGEiDQVEBgNeW3OAECOQICK0fLWAIEmgoIrKb8FidAIEdAYOVoGUuAQFMBgdWU3+IECOQICKwcLWMJEGgqILCa8lucAIEcAYGVo2UsAQJNBQRWU36LEyCQIyCwcrSMJUCgqYDAaspvcQIEcgQEVo6WsQQINBUQWE35LU6AQI6AwMrRMpYAgaYCAqspv8UJEMgREFg5WsYSINBUYLvp6haPJHDl4iRSuWodooA7rCF21Z4IDFRAYA20sbZFYIgCAmuIXbUnAgMVEFgDbaxtERiigMAaYlfticBABQTWQBtrWwSGKCCwhthVeyIwUAGBNdDG2haBIQoIrCF21Z4IDFTAk+59bOy5x+crylrnifMQM4cockWDXKon4A6rnq2ZCRAoLCCwCoOajgCBegICq56tmQkQKCwgsAqDmo4AgXoCAquerZkJECgsILAKg5qOAIF6AgKrnq2ZCRAoLCCwCoOajgCBegICq56tmQkQKCwgsAqDmo4AgXoCAquerZkJECgsILAKg5qOAIF6AgKrnq2ZCRAoLCCwCoOajgCBegICq56tmQkQKCwgsAqDmo4AgXoCAquerZkJECgsILAKg5qOAIF6AgKrnq2ZCRAoLDC5fKHwjKY7hsCJT/zTqc997eRnvnzi1k9NPvrxrcnkGJN4y7oC8/n8rT8d/Pl3N377s+u//uHBa79Zd8LW76/30/Fb7cx/hKKV/HvrTj7yj//wz4+f/vy/bk3c7TbuRfpzYnLmtu30v/P33fKlb+396sm//uTi/J2/tC7L+u8L+IfkfYvNv5qeu2vn3//n9BcekVabxz9ixck09SV1J/XoiJEub1BAYG0Q++al0r3Vx77x0xO333Pzb/tVjwRSd1KPUqd6VNO4SxFYzfqfvhOUVs30Oy+cepQ61Xm4gXUFBFZd32Wzp0/ZDz+38hVBIHUq9StCpcOvUWC16XH6O0GfW7WhP8aqk+lhv3z1QEBgtWlCeoKhzcJWPZaAfh2LrfybBFZ50y4zpuetugwzpicC+tWTRgisNo04fDrUVxwB/epJrzw4WqwRq58qzlrmykVPumeBlRm8qoOTyaqrR62voUcJdb3uDqurlHEECDQXEFjNW6AAAgS6CgisrlLGESDQXEBgNW+BAggQ6CogsLpKGUeAQHMBgdW8BQogQKCrgMDqKmUcAQLNBQRW8xYogACBrgICq6uUcQQINBfwpHuxFmQ9zbzOY9PFKjZRjkBWf3MmNjZDwB1WBpahBAi0FRBYbf2tToBAhoDAysAylACBtgICq62/1QkQyBAQWBlYhhIg0FZAYLX1tzoBAhkCAisDy1ACBNoKCKy2/lYnQCBDQGBlYBlKgEBbAYHV1t/qBAhkCAisDCxDCRBoKyCw2vpbnQCBDAGBlYFlKAECbQUEVlt/qxMgkCEgsDKwDCVAoK2AwGrrb3UCBDIEBFYGlqEECLQVEFht/a1OgECGgMDKwDKUAIG2An6mezF/P6a9GGUvJ1qnv34efKmWusMqJWkeAgSqCwis6sQWIECglIDAKiVpHgIEqgsIrOrEFiBAoJSAwColaR4CBKoLCKzqxBYgQKCUgMAqJWkeAgSqCwis6sQWIECglIDAKiVpHgIEqgt40r0YcdbTzOs8Nl2sYhPlCGT1N2diYzME3GFlYBlKgEBbAYHV1t/qBAhkCAisDCxDCRBoKyCw2vpbnQCBDIGBfOh+4ra7T9378Ml7Hpyeu2u6c8fWtMq+fOyacbIMJVBBoMo/2BXqXDrldOfOW7763dP3fX1r4m5xqZILBIYhEDuwtj99/5lHfjw9c/swmmEXBAisFggcWCmtdr75863t06t36CoBAoMRiPptVPpOMN1bSavBHEQbIdBFIGpgpc+tfCfYpcHGEBiSQMjASn8nePgpuy8CBEYmEDKw0hMM/k5wZAfVdgkcCoQMrPS8le4RIDBCgZCBlZ4OHWGrbJkAgZCPNRw+y7786+p3zs+u/nH59VpX/MSYWrL9mHed/vp3JEr1MOQd1up/86ZJWpXqh3kIEFghEDOwVmzIJQIEhisgsIbbWzsjMDgBgTW4ltoQgeEKCKzh9tbOCAxOQGANrqU2RGC4AgJruL21MwKDExBYg2upDREYroDAGm5v7WzcAtOz51cBHNxYdbWv10I+6d5PzKynmdd5bLqf2x98VVn9zdJochhmb76WVWRPBrvD6kkjlEFgowKzK5c2ul6hxQRWIUjTEAglcOPFZ0PV+16xAiti19RMYD2B+ez6C0+vN0WbdwusNu5WJdBQYO/5pw7eeKlhAcdeWmAdm84bCYQUmF17/e1nHg1ZetCfOBrUWtkE2gvs71174qHZ7ivtKzlWBe6wjsXmTQQCCqR7q93vP7D/8nMBa3+vZM9hxe2dygl0FpjP0udW6TvBuPdW725VYHVuuYEEYgnM9me7r6bnrdITDOnvBIN+yv4hcoH1IRC/JLBpgXrP0G96J/XX8xlWfWMrECBQSEBgFYI0DQEC9QUEVn1jKxAgUEhAYBWCNA0BAvUFBFZ9YysQIFBIQGAVgjQNAQL1BQRWfWMrECBQSEBgFYI0DQEC9QUEVn1jKxAgUEjAk+6FILe2mvxk7mLVm+gogXX661n2o3S7XneH1VXKOAIEmgsIrOYtUAABAl0FBFZXKeMIEGguILCat0ABBAh0FRBYXaWMI0CguYDAat4CBRAg0FVAYHWVMo4AgeYCAqt5CxRAgEBXAYHVVco4AgSaC3jSvVgLsp5mXuex6WIVmyhHIKu/ORMbmyHgDisDy1ACBNoKCKy2/lYnQCBDQGBlYBlKgEBbAYHV1t/qBAhkCAisDCxDCRBoKyCw2vpbnQCBDAGBlYFlKAECbQUEVlt/qxMgkCEgsDKwDCVAoK2AwGrrb3UCBDIEBFYGlqEECLQVEFht/a1OgECGgMDKwDKUAIG2AgKrrb/VCRDIEBBYGViGEiDQVkBgtfW3OgECGQICKwPLUAIE2goIrLb+VidAIENAYGVgGUqAQFsBP9O9mL8f016MspcTrdNfPw++VEvdYZWSNA8BAtUFBFZ1YgsQIFBKQGCVkjQPAQLVBQRWdWILECBQSkBglZI0DwEC1QUEVnViCxAgUEpAYJWSNA8BAtUFBFZ1YgsQIFBKQGCVkjQPAQLVBTzpXow462nmc/8525pMlq29zkPVy+b0+2sJzOdX/sOf7msRFnmzHhRhzJ5k/tafst/jDe0E9Kud/U0rC6ybODb2i4M//25ja1lofQH9Wt+wyAwCqwhj9iQ3fvuz7Pd4QzsB/Wpnf9PKAusmjo394vqvf7g1n21sOQutJTCfHfbLVw8EBFabJhy89pu9Xz3ZZm2rZgqkTqV+Zb7J8CoCAqsKa5dJ//qTiwevv9hlpDENBVKPUqcaFmDpDwoIrA9qbPT1/J2/vPlfX5FZG0XPXCx1J/UodSrzfYbXEhBYtWS7zDu7cmn3e1/c+98nfJ7VhWujY+az1JfUndSjja5rsZUCHhxdyVP/YvrT+60f/ds7v3js1Oe+dvIzXz5x66cmH/34imdK61c04hXm8/S8VXqCIf2dYPqU3edWPTwKk8sXeljVESWtfhA864nzI1ZqdLneBkPMHKLIRkdj7Mv6lnDsJ8D+CQQSEFiBmqVUAmMXEFhjPwH2TyCQgMAK1CylEhi7gMAa+wmwfwKBBARWoGYplcDYBQTW2E+A/RMIJCCwAjVLqQTGLiCwxn4C7J9AIAGBFahZSiUwdgGBNfYTYP8EAgkIrEDNUiqBsQsIrLGfAPsnEEhAYAVqllIJjF1AYI39BNg/gUACAitQs5RKYOwCAmvsJ8D+CQQSEFiBmqVUAmMXEFhjPwH2TyCQgJ/pHqhZSiUwdgF3WGM/AfZPIJCAwArULKUSGLuAwBr7CbB/AoEEBFagZimVwNgFBNbYT4D9EwgkILACNUupBMYuILDGfgLsn0AgAYEVqFlKJTB2AYE19hNg/wQCCWwHqlWpcQXOPT5fUfyVi5MVV10isBBwh7Wg8IIAgb4LCKy+d0h9BAgsBATWgsILAgT6LiCw+t4h9REgsBAQWAsKLwgQ6LuAwOp7h9RHgMBCQGAtKLwgQKDvAgKr7x1SHwECCwGBtaDwggCBvgsIrL53SH0ECCwEBNaCwgsCBPouILD63iH1ESCwEBBYCwovCBDou4DA6nuH1EeAwEJAYC0ovCBAoO8CAqvvHVIfAQILAYG1oPCCAIG+CwisvndIfQQILAQE1oLCCwIE+i4gsPreIfURILAQEFgLCi8IEOi7gMDqe4fUR4DAQkBgLSi8IECg7wIxA2u2v8J1evaTK666tHmB6dnzqxY9uLHqqmsEPiAQ8j+kOtt9dUUqnf32Hz6wQS/7LjB787W+l6i+3giEvMOaXbnUG0CFrCugm+sKjun9IQPrxovPjqlHA9+rbg68wUW3FzKwrr/w9NZ8VtTBZI0E5rPDbvoi0E0gZGAdvPHS3vNPddugUb0WSH1M3ex1iYrrk0DIwEqAbz/z6Oza632SVEu2QOpg6mP227xhxAJRA2u2+8q1//6Xrf29Efcu+Nb396498VDqY/BtKH+jAlEDKyHtX/rl7vcfcJ+10fNSaLHUtdS7/ZefKzSfacYiEDiwUovSid997LN7//cDn8GHObDzWepX6pq0CtOyPhU6uXyhT+Uct5YTt9196t6HT97z4PTcXdOdO7amIR+IPe7ue/++2X561jc9b5WeYEh/J+hT9t43rL8FDiSw+gusMgIEygnE/pawnIOZCBAIICCwAjRJiQQIvCsgsJwEAgTCCAisMK1SKAECAssZIEAgjIDACtMqhRIgILCcAQIEwggIrDCtUigBAgLLGSBAIIyAwArTKoUSICCwnAECBMIICKwwrVIoAQICyxkgQCCMgMAK0yqFEiAgsJwBAgTCCAisMK1SKAECAssZIEAgjIDACtMqhRIgILCcAQIEwggIrDCtUigBAgLLGSBAIIyAwArTKoUSICCwnAECBMIICKwwrVIoAQICyxkgQCCMgMAK0yqFEiAgsJwBAgTCCAisMK1SKAECAssZIEAgjIDACtMqhRIgILCcAQIEwggIrDCtUigBAgLLGSBAIIyAwArTKoUSICCwnAECBMIICKwwrVIoAQICyxkgQCCMgMAK0yqFEiAgsJwBAgTCCAisMK1SKAECAssZIEAgjIDACtMqhRIgILCcAQIEwggIrDCtUigBAgLLGSBAIIyAwArTKoUSICCwnAECBMIICKwwrVIoAQICyxkgQCCMgMAK0yqFEiAgsJwBAgTCCAisMK1SKAECAssZIEAgjIDACtMqhRIgILCcAQIEwggIrDCtUigBAgLLGSBAIIyAwArTKoUSICCwnAECBMII/D+JeQH5+kIyDAAAAABJRU5ErkJggg==;" vertex="1" parent="1">
          <mxGeometry x="398.65" y="680" width="81.35" height="81.35" as="geometry" />
        </mxCell>
        <mxCell id="YeAHKv5niiGHeIey5y5v-47" value="&lt;span style=&quot;font-size: 17px;&quot;&gt;EC2&amp;nbsp; &amp;nbsp; &amp;nbsp; &amp;nbsp; &amp;nbsp;&lt;/span&gt;&lt;div&gt;&lt;span style=&quot;font-size: 17px;&quot;&gt;(Back&amp;nbsp; End)&lt;/span&gt;&lt;/div&gt;" style="text;html=1;align=center;verticalAlign=middle;whiteSpace=wrap;rounded=0;" vertex="1" parent="1">
          <mxGeometry x="386.65" y="761.35" width="101.35" height="52.69" as="geometry" />
        </mxCell>
        <mxCell id="YeAHKv5niiGHeIey5y5v-48" value="&lt;font style=&quot;font-size: 17px;&quot;&gt;RDS&lt;/font&gt;&lt;div&gt;&lt;font style=&quot;font-size: 17px;&quot;&gt;(Database)&lt;/font&gt;&lt;/div&gt;" style="text;html=1;align=center;verticalAlign=middle;whiteSpace=wrap;rounded=0;" vertex="1" parent="1">
          <mxGeometry x="396.65" y="1040" width="81.35" height="52.69" as="geometry" />
        </mxCell>
        <mxCell id="YeAHKv5niiGHeIey5y5v-60" value="" style="shape=image;verticalLabelPosition=bottom;labelBackgroundColor=default;verticalAlign=top;aspect=fixed;imageAspect=0;editableCssRules=.*;image=data:image/svg+xml,PHN2ZyB4bWxuczp4bGluaz0iaHR0cDovL3d3dy53My5vcmcvMTk5OS94bGluayIgeG1sbnM9Imh0dHA6Ly93d3cudzMub3JnLzIwMDAvc3ZnIiB4bWw6c3BhY2U9InByZXNlcnZlIiBzdHlsZT0iZW5hYmxlLWJhY2tncm91bmQ6bmV3IDAgMCAzNSAzNTsiIHZpZXdCb3g9IjEuOTk1NTY3MzIxNzc3MzQzOCA0LjQwMDAwMDA5NTM2NzQzMiAzMS4yMDQ0MzM0NDExNjIxMSAyNi4yMDAwMDI2NzAyODgwODYiIHk9IjBweCIgeD0iMHB4IiBpZD0iTGF5ZXJfMSIgdmVyc2lvbj0iMS4xIiB3aWR0aD0iMzEuMjA0NDMzNDQxMTYyMTEiIGhlaWdodD0iMjYuMjAwMDAyNjcwMjg4MDg2Ij4mI3hhOzxzdHlsZSB0eXBlPSJ0ZXh0L2NzcyI+JiN4YTsJLnN0MHtmaWxsOiNEQjAwNTc7fSYjeGE7PC9zdHlsZT4mI3hhOzxnPiYjeGE7CTxwYXRoIGQ9Ik0zMS43LDE0LjZjLTAuOS0xLjEtMi4yLTEuOC0zLjYtMi4xYy0wLjEtMS4xLTAuNi0yLjItMS41LTNjLTEuMy0xLjItMy4zLTEuMy00LjctMC4yJiMxMDsmIzk7JiM5O2MtMC41LTAuOS0xLjEtMS44LTEuOC0yLjVDMTkuMyw2LDE4LjQsNS40LDE3LjMsNWMtMS0wLjQtMi0wLjYtMy4xLTAuNnMtMi4zLDAuMi0zLjMsMC43QzgsNi4zLDYuMSw5LjIsNiwxMi4zYzAsMC4xLDAsMC4yLDAsMC40JiMxMDsmIzk7JiM5O2MtMi41LDAuNy00LjEsMy00LDUuNmMwLDAuMSwwLDAuMywwLDAuNGMwLjMsMy4yLDMsNS42LDYuMiw1LjVoMC41bDAsMHYtMS41SDguMmMtMi40LDAuMS00LjUtMS43LTQuNy00LjJjMC0wLjEsMC0wLjIsMC0wLjMmIzEwOyYjOTsmIzk7Yy0wLjEtMi4xLDEuNC00LDMuNS00LjNjMC40LTAuMSwwLjYtMC40LDAuNi0wLjhjMC0wLjMsMC0wLjUsMC0wLjhjMC4xLTIuNiwxLjYtNC45LDQtNmMwLjktMC40LDEuOC0wLjYsMi44LTAuNiYjMTA7JiM5OyYjOTtjMS44LDAsMy41LDAuOCw0LjgsMmMwLjgsMC44LDEuNSwxLjksMS45LDNjMC4xLDAuMywwLjMsMC40LDAuNiwwLjVoMC4xYzAuMiwwLDAuNC0wLjEsMC42LTAuM2MwLjQtMC42LDEuMi0xLDEuOS0xJiMxMDsmIzk7JiM5O2MxLjEsMCwyLjQsMC44LDIuNiwzLjFjMCwwLjMsMC4zLDAuNiwwLjYsMC43YzIuOCwwLjYsNC4yLDIuMSw0LjIsNC41YzAsNC0zLjQsNC40LTQuOCw0LjRsMCwwdjEuNWMzLDAsNi4zLTEuNSw2LjMtNS45JiMxMDsmIzk7JiM5O0MzMywxNywzMi42LDE1LjcsMzEuNywxNC42eiIgY2xhc3M9InN0MCIvPiYjeGE7CTxwYXRoIGQ9Ik0yMy40LDIwLjRoLTAuN3YtMi45Yy0wLjEtMS4yLTAuNy0yLjQtMS43LTMuMWMtMS0wLjgtMi4yLTEuMy0zLjUtMS4zYy0yLjYsMC01LjEsMi4yLTUuMSw0LjR2Mi45aC0wLjcmIzEwOyYjOTsmIzk7Yy0wLjQsMC0wLjcsMC4zLTAuNywwLjd2OC44YzAsMC40LDAuMywwLjcsMC43LDAuN2gxMS44YzAuNCwwLDAuNy0wLjMsMC43LTAuN3YtOC44QzI0LjEsMjAuNywyMy44LDIwLjQsMjMuNCwyMC40eiBNMTMuOCwxNy40JiMxMDsmIzk7JiM5O2MwLTEuNCwxLjktMi45LDMuNy0yLjljMC45LDAsMS44LDAuNCwyLjUsMWMwLjYsMC41LDEuMSwxLjIsMS4xLDJ2Mi45aC03LjRMMTMuOCwxNy40TDEzLjgsMTcuNHogTTIyLjYsMjMuM2gtMS41djEuNWgxLjV2MS41JiMxMDsmIzk7JiM5O2gtMS41djEuNWgxLjV2MS41SDEyLjR2LTcuNGgxMC4zdjEuNEgyMi42eiIgY2xhc3M9InN0MCIvPiYjeGE7CTxwYXRoIGQ9Ik0xNi44LDI2LjR2Mi4xaDEuNXYtMi4xYzAuNS0wLjIsMS0wLjYsMS4yLTEuMmMwLjQtMS0wLjEtMi4yLTEuMi0yLjZjLTEtMC40LTIuMiwwLjEtMi42LDEuMiYjMTA7JiM5OyYjOTtDMTUuMiwyNC44LDE1LjcsMjYsMTYuOCwyNi40eiBNMTcuNSwyNGMwLjMsMCwwLjYsMC4zLDAuNiwwLjZjMCwwLjMtMC4zLDAuNi0wLjYsMC42cy0wLjYtMC4zLTAuNi0wLjZDMTYuOSwyNC4yLDE3LjIsMjQsMTcuNSwyNHoiIGNsYXNzPSJzdDAiLz4mI3hhOzwvZz4mI3hhOzwvc3ZnPg==;" vertex="1" parent="1">
          <mxGeometry x="493.5" y="680" width="41" height="34.39" as="geometry" />
        </mxCell>
        <mxCell id="YeAHKv5niiGHeIey5y5v-62" value="&lt;font&gt;Security group&lt;/font&gt;" style="text;html=1;align=center;verticalAlign=middle;whiteSpace=wrap;rounded=0;fontSize=11;" vertex="1" parent="1">
          <mxGeometry x="488" y="713.6600000000001" width="52" height="52.69" as="geometry" />
        </mxCell>
        <mxCell id="YeAHKv5niiGHeIey5y5v-64" value="" style="shape=image;verticalLabelPosition=bottom;labelBackgroundColor=default;verticalAlign=top;aspect=fixed;imageAspect=0;editableCssRules=.*;image=data:image/svg+xml,PHN2ZyB4bWxuczp4bGluaz0iaHR0cDovL3d3dy53My5vcmcvMTk5OS94bGluayIgeG1sbnM9Imh0dHA6Ly93d3cudzMub3JnLzIwMDAvc3ZnIiB4bWw6c3BhY2U9InByZXNlcnZlIiBzdHlsZT0iZW5hYmxlLWJhY2tncm91bmQ6bmV3IDAgMCAzNSAzNTsiIHZpZXdCb3g9IjEuOTk1NTY3MzIxNzc3MzQzOCA0LjQwMDAwMDA5NTM2NzQzMiAzMS4yMDQ0MzM0NDExNjIxMSAyNi4yMDAwMDI2NzAyODgwODYiIHk9IjBweCIgeD0iMHB4IiBpZD0iTGF5ZXJfMSIgdmVyc2lvbj0iMS4xIiB3aWR0aD0iMzEuMjA0NDMzNDQxMTYyMTEiIGhlaWdodD0iMjYuMjAwMDAyNjcwMjg4MDg2Ij4mI3hhOzxzdHlsZSB0eXBlPSJ0ZXh0L2NzcyI+JiN4YTsJLnN0MHtmaWxsOiNEQjAwNTc7fSYjeGE7PC9zdHlsZT4mI3hhOzxnPiYjeGE7CTxwYXRoIGQ9Ik0zMS43LDE0LjZjLTAuOS0xLjEtMi4yLTEuOC0zLjYtMi4xYy0wLjEtMS4xLTAuNi0yLjItMS41LTNjLTEuMy0xLjItMy4zLTEuMy00LjctMC4yJiMxMDsmIzk7JiM5O2MtMC41LTAuOS0xLjEtMS44LTEuOC0yLjVDMTkuMyw2LDE4LjQsNS40LDE3LjMsNWMtMS0wLjQtMi0wLjYtMy4xLTAuNnMtMi4zLDAuMi0zLjMsMC43QzgsNi4zLDYuMSw5LjIsNiwxMi4zYzAsMC4xLDAsMC4yLDAsMC40JiMxMDsmIzk7JiM5O2MtMi41LDAuNy00LjEsMy00LDUuNmMwLDAuMSwwLDAuMywwLDAuNGMwLjMsMy4yLDMsNS42LDYuMiw1LjVoMC41bDAsMHYtMS41SDguMmMtMi40LDAuMS00LjUtMS43LTQuNy00LjJjMC0wLjEsMC0wLjIsMC0wLjMmIzEwOyYjOTsmIzk7Yy0wLjEtMi4xLDEuNC00LDMuNS00LjNjMC40LTAuMSwwLjYtMC40LDAuNi0wLjhjMC0wLjMsMC0wLjUsMC0wLjhjMC4xLTIuNiwxLjYtNC45LDQtNmMwLjktMC40LDEuOC0wLjYsMi44LTAuNiYjMTA7JiM5OyYjOTtjMS44LDAsMy41LDAuOCw0LjgsMmMwLjgsMC44LDEuNSwxLjksMS45LDNjMC4xLDAuMywwLjMsMC40LDAuNiwwLjVoMC4xYzAuMiwwLDAuNC0wLjEsMC42LTAuM2MwLjQtMC42LDEuMi0xLDEuOS0xJiMxMDsmIzk7JiM5O2MxLjEsMCwyLjQsMC44LDIuNiwzLjFjMCwwLjMsMC4zLDAuNiwwLjYsMC43YzIuOCwwLjYsNC4yLDIuMSw0LjIsNC41YzAsNC0zLjQsNC40LTQuOCw0LjRsMCwwdjEuNWMzLDAsNi4zLTEuNSw2LjMtNS45JiMxMDsmIzk7JiM5O0MzMywxNywzMi42LDE1LjcsMzEuNywxNC42eiIgY2xhc3M9InN0MCIvPiYjeGE7CTxwYXRoIGQ9Ik0yMy40LDIwLjRoLTAuN3YtMi45Yy0wLjEtMS4yLTAuNy0yLjQtMS43LTMuMWMtMS0wLjgtMi4yLTEuMy0zLjUtMS4zYy0yLjYsMC01LjEsMi4yLTUuMSw0LjR2Mi45aC0wLjcmIzEwOyYjOTsmIzk7Yy0wLjQsMC0wLjcsMC4zLTAuNywwLjd2OC44YzAsMC40LDAuMywwLjcsMC43LDAuN2gxMS44YzAuNCwwLDAuNy0wLjMsMC43LTAuN3YtOC44QzI0LjEsMjAuNywyMy44LDIwLjQsMjMuNCwyMC40eiBNMTMuOCwxNy40JiMxMDsmIzk7JiM5O2MwLTEuNCwxLjktMi45LDMuNy0yLjljMC45LDAsMS44LDAuNCwyLjUsMWMwLjYsMC41LDEuMSwxLjIsMS4xLDJ2Mi45aC03LjRMMTMuOCwxNy40TDEzLjgsMTcuNHogTTIyLjYsMjMuM2gtMS41djEuNWgxLjV2MS41JiMxMDsmIzk7JiM5O2gtMS41djEuNWgxLjV2MS41SDEyLjR2LTcuNGgxMC4zdjEuNEgyMi42eiIgY2xhc3M9InN0MCIvPiYjeGE7CTxwYXRoIGQ9Ik0xNi44LDI2LjR2Mi4xaDEuNXYtMi4xYzAuNS0wLjIsMS0wLjYsMS4yLTEuMmMwLjQtMS0wLjEtMi4yLTEuMi0yLjZjLTEtMC40LTIuMiwwLjEtMi42LDEuMiYjMTA7JiM5OyYjOTtDMTUuMiwyNC44LDE1LjcsMjYsMTYuOCwyNi40eiBNMTcuNSwyNGMwLjMsMCwwLjYsMC4zLDAuNiwwLjZjMCwwLjMtMC4zLDAuNi0wLjYsMC42cy0wLjYtMC4zLTAuNi0wLjZDMTYuOSwyNC4yLDE3LjIsMjQsMTcuNSwyNHoiIGNsYXNzPSJzdDAiLz4mI3hhOzwvZz4mI3hhOzwvc3ZnPg==;" vertex="1" parent="1">
          <mxGeometry x="488" y="960" width="41" height="34.39" as="geometry" />
        </mxCell>
        <mxCell id="YeAHKv5niiGHeIey5y5v-65" value="&lt;font&gt;Security group&lt;/font&gt;" style="text;html=1;align=center;verticalAlign=middle;whiteSpace=wrap;rounded=0;fontSize=11;" vertex="1" parent="1">
          <mxGeometry x="482.5" y="994.3900000000001" width="52" height="52.69" as="geometry" />
        </mxCell>
        <mxCell id="YeAHKv5niiGHeIey5y5v-71" value="" style="sketch=0;outlineConnect=0;fontColor=#232F3E;gradientColor=none;fillColor=#8C4FFF;strokeColor=none;dashed=0;verticalLabelPosition=bottom;verticalAlign=top;align=center;html=1;fontSize=12;fontStyle=0;aspect=fixed;pointerEvents=1;shape=mxgraph.aws4.internet_gateway;" vertex="1" parent="1">
          <mxGeometry x="448" y="607" width="30" height="30" as="geometry" />
        </mxCell>
        <mxCell id="YeAHKv5niiGHeIey5y5v-73" value="&lt;font&gt;Internet Gateway&lt;/font&gt;" style="text;html=1;align=center;verticalAlign=middle;whiteSpace=wrap;rounded=0;fontSize=11;fontStyle=4" vertex="1" parent="1">
          <mxGeometry x="480" y="607" width="90" height="30" as="geometry" />
        </mxCell>
      </root>
    </mxGraphModel>
  </diagram>
</mxfile>
